# xmcd
#
# Track frame offsets:
#	150
#	15731
#	33136
#	50564
#	61794
#	73924
#	82108
#	92470
#	106026
#	118950
#	134551
#
# Disc length: 2003 seconds
# Revision: 0
# Processed by: cddbd v1.5.2PL0 Copyright (c) Steve Scherf et al.
# Submitted via: dBpowerAMP V12.0
#
DISCID=9207d10b
DTITLE=Little Bandit - Breakfast Alone
DYEAR=2017
DGENRE=Country
TTITLE0=Bed of Bad Luck
TTITLE1=Pitiful Heart
TTITLE2=Nashville
TTITLE3=Money
TTITLE4=Platform Shoes
TTITLE5=Comfort Inn
TTITLE6=Diana 
TTITLE7=Scattered and Smothered
TTITLE8=Drinkin' at the Bar
TTITLE9=Get Me Out of It 
TTITLE10=Sinking
EXTD=
EXTT0=
EXTT1=
EXTT2=
EXTT3=
EXTT4=
EXTT5=
EXTT6=
EXTT7=
EXTT8=
EXTT9=
EXTT10=
PLAYORDER=
